<mxfile host="65bd71144e">
    <diagram id="eM0Bap4LzDAm1wy6WGZw" name="PÃ¡gina-1">
        <mxGraphModel dx="1489" dy="461" grid="1" gridSize="10" guides="1" tooltips="1" connect="1" arrows="1" fold="1" page="1" pageScale="1" pageWidth="827" pageHeight="1169" math="0" shadow="0">
            <root>
                <mxCell id="0"/>
                <mxCell id="1" parent="0"/>
                <mxCell id="4" value="" style="endArrow=classic;html=1;exitX=0.5;exitY=1;exitDx=0;exitDy=0;" parent="1" source="67" edge="1">
                    <mxGeometry width="50" height="50" relative="1" as="geometry">
                        <mxPoint x="260" y="110" as="sourcePoint"/>
                        <mxPoint x="260" y="160" as="targetPoint"/>
                    </mxGeometry>
                </mxCell>
                <mxCell id="5" value="1--sumar&lt;br&gt;2--restar&lt;br&gt;3--multiplicar&lt;br&gt;4--dividir&lt;br&gt;5--potenciacion&lt;br&gt;6--logaritmacion" style="shape=document;whiteSpace=wrap;html=1;boundedLbl=1;fillColor=#d80073;fontColor=#ffffff;strokeColor=#A50040;gradientColor=default;" parent="1" vertex="1">
                    <mxGeometry x="200" y="120" width="120" height="130" as="geometry"/>
                </mxCell>
                <mxCell id="6" value="" style="endArrow=classic;html=1;" parent="1" edge="1">
                    <mxGeometry width="50" height="50" relative="1" as="geometry">
                        <mxPoint x="260" y="230" as="sourcePoint"/>
                        <mxPoint x="260" y="280" as="targetPoint"/>
                    </mxGeometry>
                </mxCell>
                <mxCell id="7" value="X,Y" style="shape=parallelogram;perimeter=parallelogramPerimeter;whiteSpace=wrap;html=1;fixedSize=1;fillColor=#6a00ff;fontColor=#ffffff;strokeColor=#3700CC;gradientColor=default;" parent="1" vertex="1">
                    <mxGeometry x="200" y="280" width="120" height="40" as="geometry"/>
                </mxCell>
                <mxCell id="8" value="" style="endArrow=classic;html=1;" parent="1" edge="1">
                    <mxGeometry width="50" height="50" relative="1" as="geometry">
                        <mxPoint x="260" y="320" as="sourcePoint"/>
                        <mxPoint x="260" y="360" as="targetPoint"/>
                    </mxGeometry>
                </mxCell>
                <mxCell id="9" value="o p c" style="shape=parallelogram;perimeter=parallelogramPerimeter;whiteSpace=wrap;html=1;fixedSize=1;fillColor=#d80073;fontColor=#ffffff;strokeColor=#A50040;gradientColor=default;" parent="1" vertex="1">
                    <mxGeometry x="200" y="360" width="120" height="40" as="geometry"/>
                </mxCell>
                <mxCell id="10" value="" style="endArrow=classic;html=1;" parent="1" edge="1">
                    <mxGeometry width="50" height="50" relative="1" as="geometry">
                        <mxPoint x="260" y="400" as="sourcePoint"/>
                        <mxPoint x="260" y="440" as="targetPoint"/>
                    </mxGeometry>
                </mxCell>
                <mxCell id="11" value="o p c == 1" style="rhombus;whiteSpace=wrap;html=1;fillColor=#6a00ff;fontColor=#ffffff;strokeColor=#3700CC;gradientColor=default;" parent="1" vertex="1">
                    <mxGeometry x="216.25" y="440" width="87.5" height="80" as="geometry"/>
                </mxCell>
                <mxCell id="12" value="" style="endArrow=classic;html=1;" parent="1" edge="1">
                    <mxGeometry width="50" height="50" relative="1" as="geometry">
                        <mxPoint x="360" y="479.5" as="sourcePoint"/>
                        <mxPoint x="360" y="520" as="targetPoint"/>
                    </mxGeometry>
                </mxCell>
                <mxCell id="13" value="" style="endArrow=none;html=1;" parent="1" edge="1">
                    <mxGeometry width="50" height="50" relative="1" as="geometry">
                        <mxPoint x="303.75" y="480" as="sourcePoint"/>
                        <mxPoint x="360" y="480" as="targetPoint"/>
                    </mxGeometry>
                </mxCell>
                <mxCell id="14" value="r=X+Y" style="rounded=0;whiteSpace=wrap;html=1;fillColor=#d80073;fontColor=#ffffff;strokeColor=#A50040;gradientColor=default;" parent="1" vertex="1">
                    <mxGeometry x="320" y="520" width="80" height="40" as="geometry"/>
                </mxCell>
                <mxCell id="16" value="" style="endArrow=classic;html=1;exitX=0;exitY=0.5;exitDx=0;exitDy=0;entryX=0.5;entryY=0;entryDx=0;entryDy=0;" parent="1" target="17" edge="1" source="11">
                    <mxGeometry width="50" height="50" relative="1" as="geometry">
                        <mxPoint x="160" y="480" as="sourcePoint"/>
                        <mxPoint x="160" y="520" as="targetPoint"/>
                        <Array as="points">
                            <mxPoint x="160" y="480"/>
                        </Array>
                    </mxGeometry>
                </mxCell>
                <mxCell id="17" value="o p c== 2" style="rhombus;whiteSpace=wrap;html=1;fillColor=#6a00ff;fontColor=#ffffff;strokeColor=#3700CC;gradientColor=default;" parent="1" vertex="1">
                    <mxGeometry x="120" y="520" width="80" height="80" as="geometry"/>
                </mxCell>
                <mxCell id="21" value="" style="endArrow=classic;html=1;" parent="1" edge="1">
                    <mxGeometry width="50" height="50" relative="1" as="geometry">
                        <mxPoint x="240" y="640" as="sourcePoint"/>
                        <mxPoint x="240" y="640" as="targetPoint"/>
                        <Array as="points">
                            <mxPoint x="240" y="650"/>
                        </Array>
                    </mxGeometry>
                </mxCell>
                <mxCell id="22" value="r=X-Y" style="rounded=0;whiteSpace=wrap;html=1;fillColor=#d80073;fontColor=#ffffff;strokeColor=#A50040;gradientColor=default;" parent="1" vertex="1">
                    <mxGeometry x="200" y="600" width="80" height="40" as="geometry"/>
                </mxCell>
                <mxCell id="25" value="o p c == 3" style="rhombus;whiteSpace=wrap;html=1;fillColor=#6a00ff;fontColor=#ffffff;strokeColor=#3700CC;gradientColor=default;" parent="1" vertex="1">
                    <mxGeometry x="40" y="640" width="80" height="80" as="geometry"/>
                </mxCell>
                <mxCell id="29" value="r=X*Y" style="rounded=0;whiteSpace=wrap;html=1;fillColor=#d80073;fontColor=#ffffff;strokeColor=#A50040;gradientColor=default;" parent="1" vertex="1">
                    <mxGeometry x="120" y="720" width="80" height="40" as="geometry"/>
                </mxCell>
                <mxCell id="34" value="" style="endArrow=none;html=1;" parent="1" edge="1">
                    <mxGeometry width="50" height="50" relative="1" as="geometry">
                        <mxPoint y="960" as="sourcePoint"/>
                        <mxPoint y="920" as="targetPoint"/>
                    </mxGeometry>
                </mxCell>
                <mxCell id="56" value="" style="endArrow=none;html=1;" parent="1" edge="1">
                    <mxGeometry width="50" height="50" relative="1" as="geometry">
                        <mxPoint x="200" y="560" as="sourcePoint"/>
                        <mxPoint x="240" y="560" as="targetPoint"/>
                    </mxGeometry>
                </mxCell>
                <mxCell id="57" value="" style="endArrow=none;html=1;" parent="1" edge="1">
                    <mxGeometry width="50" height="50" relative="1" as="geometry">
                        <mxPoint x="240" y="600" as="sourcePoint"/>
                        <mxPoint x="240" y="560" as="targetPoint"/>
                    </mxGeometry>
                </mxCell>
                <mxCell id="58" value="" style="endArrow=none;html=1;" parent="1" edge="1">
                    <mxGeometry width="50" height="50" relative="1" as="geometry">
                        <mxPoint x="160" y="679.5" as="sourcePoint"/>
                        <mxPoint x="120" y="679.5" as="targetPoint"/>
                    </mxGeometry>
                </mxCell>
                <mxCell id="59" value="" style="endArrow=classic;html=1;" parent="1" edge="1">
                    <mxGeometry width="50" height="50" relative="1" as="geometry">
                        <mxPoint x="159.5" y="680" as="sourcePoint"/>
                        <mxPoint x="159.5" y="720" as="targetPoint"/>
                    </mxGeometry>
                </mxCell>
                <mxCell id="67" value="inicio" style="ellipse;whiteSpace=wrap;html=1;fillColor=#6a00ff;fontColor=#ffffff;strokeColor=#3700CC;gradientColor=default;" parent="1" vertex="1">
                    <mxGeometry x="200" y="20" width="120" height="80" as="geometry"/>
                </mxCell>
                <mxCell id="69" value="" style="endArrow=classic;html=1;exitX=0;exitY=0.5;exitDx=0;exitDy=0;" edge="1" parent="1" source="25">
                    <mxGeometry width="50" height="50" relative="1" as="geometry">
                        <mxPoint y="680" as="sourcePoint"/>
                        <mxPoint y="760" as="targetPoint"/>
                        <Array as="points">
                            <mxPoint y="680"/>
                        </Array>
                    </mxGeometry>
                </mxCell>
                <mxCell id="70" value="o p c == 4" style="rhombus;whiteSpace=wrap;html=1;fillColor=#6a00ff;fontColor=#ffffff;strokeColor=#3700CC;gradientColor=default;" vertex="1" parent="1">
                    <mxGeometry x="-40" y="760" width="80" height="80" as="geometry"/>
                </mxCell>
                <mxCell id="71" value="" style="endArrow=none;html=1;" edge="1" parent="1">
                    <mxGeometry width="50" height="50" relative="1" as="geometry">
                        <mxPoint x="40" y="800" as="sourcePoint"/>
                        <mxPoint x="80" y="800" as="targetPoint"/>
                    </mxGeometry>
                </mxCell>
                <mxCell id="73" value="" style="endArrow=classic;html=1;exitX=0;exitY=0.5;exitDx=0;exitDy=0;" edge="1" parent="1" source="70">
                    <mxGeometry width="50" height="50" relative="1" as="geometry">
                        <mxPoint x="-80" y="800" as="sourcePoint"/>
                        <mxPoint x="-80" y="880" as="targetPoint"/>
                        <Array as="points">
                            <mxPoint x="-80" y="800"/>
                        </Array>
                    </mxGeometry>
                </mxCell>
                <mxCell id="74" value="" style="endArrow=classic;html=1;" edge="1" parent="1">
                    <mxGeometry width="50" height="50" relative="1" as="geometry">
                        <mxPoint x="80" y="800" as="sourcePoint"/>
                        <mxPoint x="80" y="840" as="targetPoint"/>
                    </mxGeometry>
                </mxCell>
                <mxCell id="75" value="r=X/Y" style="rounded=0;whiteSpace=wrap;html=1;fillColor=#d80073;fontColor=#ffffff;strokeColor=#A50040;gradientColor=default;" vertex="1" parent="1">
                    <mxGeometry x="40" y="840" width="80" height="40" as="geometry"/>
                </mxCell>
                <mxCell id="76" value="o p c == 5" style="rhombus;whiteSpace=wrap;html=1;fillColor=#6a00ff;fontColor=#ffffff;strokeColor=#3700CC;gradientColor=default;" vertex="1" parent="1">
                    <mxGeometry x="-120" y="880" width="80" height="80" as="geometry"/>
                </mxCell>
                <mxCell id="77" value="" style="endArrow=classic;html=1;" edge="1" parent="1">
                    <mxGeometry width="50" height="50" relative="1" as="geometry">
                        <mxPoint x="-41" y="920" as="sourcePoint"/>
                        <mxPoint y="920" as="targetPoint"/>
                    </mxGeometry>
                </mxCell>
                <mxCell id="78" value="" style="endArrow=none;html=1;" edge="1" parent="1">
                    <mxGeometry width="50" height="50" relative="1" as="geometry">
                        <mxPoint y="960" as="sourcePoint"/>
                        <mxPoint y="920" as="targetPoint"/>
                    </mxGeometry>
                </mxCell>
                <mxCell id="82" value="" style="endArrow=classic;html=1;exitX=0;exitY=0.5;exitDx=0;exitDy=0;" edge="1" parent="1" source="76">
                    <mxGeometry width="50" height="50" relative="1" as="geometry">
                        <mxPoint x="-160" y="920" as="sourcePoint"/>
                        <mxPoint x="-160" y="1000" as="targetPoint"/>
                        <Array as="points">
                            <mxPoint x="-160" y="920"/>
                        </Array>
                    </mxGeometry>
                </mxCell>
                <mxCell id="83" value="" style="endArrow=classic;html=1;" edge="1" parent="1">
                    <mxGeometry width="50" height="50" relative="1" as="geometry">
                        <mxPoint x="-1" y="920" as="sourcePoint"/>
                        <mxPoint x="-1" y="960" as="targetPoint"/>
                    </mxGeometry>
                </mxCell>
                <mxCell id="85" value="&amp;nbsp;r=X&lt;span style=&quot;border-radius: 4px; padding: 0px 2px; background-image: linear-gradient(90deg, rgb(211, 227, 253) 50%, rgba(0, 0, 0, 0) 50%); background-position: 0% 0px; background-size: 200% 100%; background-repeat: no-repeat; background-attachment: initial; background-origin: initial; background-clip: initial; color: rgb(4, 12, 40); animation: 0.75s cubic-bezier(0.05, 0.7, 0.1, 1) 0.25s 1 normal forwards running highlight; font-family: &amp;quot;Google Sans&amp;quot;, Arial, sans-serif; font-size: 20px; text-align: left;&quot;&gt;^&lt;/span&gt;&lt;span style=&quot;border-radius: 4px; padding: 0px 2px; background-image: linear-gradient(90deg, rgb(211, 227, 253) 50%, rgba(0, 0, 0, 0) 50%); background-position: 0% 0px; background-size: 200% 100%; background-repeat: no-repeat; background-attachment: initial; background-origin: initial; background-clip: initial; animation: 0.75s cubic-bezier(0.05, 0.7, 0.1, 1) 0.25s 1 normal forwards running highlight; font-family: &amp;quot;Google Sans&amp;quot;, Arial, sans-serif; font-size: 20px; text-align: left;&quot;&gt;y&lt;/span&gt;" style="rounded=0;whiteSpace=wrap;html=1;fillColor=#d80073;fontColor=#ffffff;strokeColor=#A50040;gradientColor=default;" vertex="1" parent="1">
                    <mxGeometry x="-40" y="960" width="80" height="40" as="geometry"/>
                </mxCell>
                <mxCell id="86" value="o p c == 6" style="rhombus;whiteSpace=wrap;html=1;fillColor=#6a00ff;fontColor=#ffffff;strokeColor=#3700CC;gradientColor=default;" vertex="1" parent="1">
                    <mxGeometry x="-200" y="1000" width="80" height="80" as="geometry"/>
                </mxCell>
                <mxCell id="87" value="" style="endArrow=classic;html=1;exitX=0;exitY=0.5;exitDx=0;exitDy=0;" edge="1" parent="1" source="86">
                    <mxGeometry width="50" height="50" relative="1" as="geometry">
                        <mxPoint x="-240" y="1040" as="sourcePoint"/>
                        <mxPoint x="-240" y="1120" as="targetPoint"/>
                        <Array as="points">
                            <mxPoint x="-240" y="1040"/>
                        </Array>
                    </mxGeometry>
                </mxCell>
                <mxCell id="89" value="" style="endArrow=classic;html=1;" edge="1" parent="1">
                    <mxGeometry width="50" height="50" relative="1" as="geometry">
                        <mxPoint x="-120" y="1039.5" as="sourcePoint"/>
                        <mxPoint x="-79" y="1039.5" as="targetPoint"/>
                    </mxGeometry>
                </mxCell>
                <mxCell id="90" value="" style="endArrow=classic;html=1;" edge="1" parent="1">
                    <mxGeometry width="50" height="50" relative="1" as="geometry">
                        <mxPoint x="-80" y="1040" as="sourcePoint"/>
                        <mxPoint x="-80" y="1080" as="targetPoint"/>
                    </mxGeometry>
                </mxCell>
                <mxCell id="91" value="r=&lt;span style=&quot;font-family: sans-serif; font-size: 16px; text-align: start;&quot;&gt;log&lt;/span&gt;&lt;span style=&quot;font-family: sans-serif; text-align: start; font-size: 10px;&quot;&gt;&lt;i&gt;xY&lt;/i&gt;&lt;/span&gt;" style="rounded=0;whiteSpace=wrap;html=1;fillColor=#d80073;fontColor=#ffffff;strokeColor=#A50040;gradientColor=default;" vertex="1" parent="1">
                    <mxGeometry x="-120" y="1080" width="80" height="40" as="geometry"/>
                </mxCell>
                <mxCell id="92" value="r==NO VALIDO" style="rounded=0;whiteSpace=wrap;html=1;fillColor=#d80073;fontColor=#ffffff;strokeColor=#A50040;gradientColor=default;" vertex="1" parent="1">
                    <mxGeometry x="-280" y="1120" width="80" height="40" as="geometry"/>
                </mxCell>
                <mxCell id="94" value="" style="endArrow=classic;html=1;fontColor=#FFFFFF;" edge="1" parent="1">
                    <mxGeometry width="50" height="50" relative="1" as="geometry">
                        <mxPoint x="360" y="560" as="sourcePoint"/>
                        <mxPoint x="360" y="1240" as="targetPoint"/>
                    </mxGeometry>
                </mxCell>
                <mxCell id="97" value="" style="endArrow=classic;html=1;fontColor=#FFFFFF;" edge="1" parent="1">
                    <mxGeometry width="50" height="50" relative="1" as="geometry">
                        <mxPoint x="-80" y="1120" as="sourcePoint"/>
                        <mxPoint x="-80" y="1240" as="targetPoint"/>
                    </mxGeometry>
                </mxCell>
                <mxCell id="98" value="" style="endArrow=classic;html=1;fontColor=#FFFFFF;" edge="1" parent="1">
                    <mxGeometry width="50" height="50" relative="1" as="geometry">
                        <mxPoint y="1010" as="sourcePoint"/>
                        <mxPoint y="1240" as="targetPoint"/>
                    </mxGeometry>
                </mxCell>
                <mxCell id="99" value="" style="endArrow=classic;html=1;fontColor=#FFFFFF;" edge="1" parent="1">
                    <mxGeometry width="50" height="50" relative="1" as="geometry">
                        <mxPoint x="79.5" y="880" as="sourcePoint"/>
                        <mxPoint x="80" y="1240" as="targetPoint"/>
                    </mxGeometry>
                </mxCell>
                <mxCell id="100" value="" style="endArrow=classic;html=1;fontColor=#FFFFFF;" edge="1" parent="1">
                    <mxGeometry width="50" height="50" relative="1" as="geometry">
                        <mxPoint x="159.5" y="760" as="sourcePoint"/>
                        <mxPoint x="160" y="1240" as="targetPoint"/>
                    </mxGeometry>
                </mxCell>
                <mxCell id="101" value="" style="endArrow=classic;html=1;fontColor=#FFFFFF;" edge="1" parent="1">
                    <mxGeometry width="50" height="50" relative="1" as="geometry">
                        <mxPoint x="239.5" y="640" as="sourcePoint"/>
                        <mxPoint x="240" y="1240" as="targetPoint"/>
                    </mxGeometry>
                </mxCell>
                <mxCell id="102" value="" style="endArrow=none;html=1;fontColor=#FFFFFF;exitX=0.5;exitY=1;exitDx=0;exitDy=0;" edge="1" parent="1" source="92">
                    <mxGeometry width="50" height="50" relative="1" as="geometry">
                        <mxPoint x="-240" y="1240" as="sourcePoint"/>
                        <mxPoint x="361" y="1240" as="targetPoint"/>
                        <Array as="points">
                            <mxPoint x="-240" y="1240"/>
                        </Array>
                    </mxGeometry>
                </mxCell>
                <mxCell id="103" value="" style="endArrow=classic;html=1;fontColor=#FFFFFF;" edge="1" parent="1" target="104">
                    <mxGeometry width="50" height="50" relative="1" as="geometry">
                        <mxPoint x="40" y="1240" as="sourcePoint"/>
                        <mxPoint x="40" y="1280" as="targetPoint"/>
                    </mxGeometry>
                </mxCell>
                <mxCell id="104" value="r" style="shape=document;whiteSpace=wrap;html=1;boundedLbl=1;labelBackgroundColor=none;fontColor=#ffffff;fillColor=#6a00ff;strokeColor=#3700CC;gradientColor=default;" vertex="1" parent="1">
                    <mxGeometry x="-20" y="1280" width="120" height="80" as="geometry"/>
                </mxCell>
                <mxCell id="105" value="" style="endArrow=classic;html=1;fontColor=#FFFFFF;" edge="1" parent="1" target="106">
                    <mxGeometry width="50" height="50" relative="1" as="geometry">
                        <mxPoint x="40" y="1350" as="sourcePoint"/>
                        <mxPoint x="40" y="1400" as="targetPoint"/>
                    </mxGeometry>
                </mxCell>
                <mxCell id="106" value="fin" style="ellipse;whiteSpace=wrap;html=1;labelBackgroundColor=none;fontColor=#ffffff;fillColor=#d80073;strokeColor=#A50040;gradientColor=default;" vertex="1" parent="1">
                    <mxGeometry x="-20" y="1400" width="120" height="80" as="geometry"/>
                </mxCell>
                <mxCell id="110" value="" style="endArrow=classic;html=1;entryX=0.5;entryY=0;entryDx=0;entryDy=0;exitX=0;exitY=0.5;exitDx=0;exitDy=0;" edge="1" parent="1" source="17" target="25">
                    <mxGeometry width="50" height="50" relative="1" as="geometry">
                        <mxPoint x="110" y="560" as="sourcePoint"/>
                        <mxPoint x="80" y="600" as="targetPoint"/>
                        <Array as="points">
                            <mxPoint x="80" y="560"/>
                        </Array>
                    </mxGeometry>
                </mxCell>
            </root>
        </mxGraphModel>
    </diagram>
</mxfile>